# xmcd
#
# Track frame offsets:
#	325
#	11757
#	23365
#	35662
#	46680
#	58715
#	72630
#	86422
#	100677
#	112977
#	123565
#	141060
#	153695
#	165775
#	173640
#	186462
#	196537
#	208110
#	223225
#	238395
#
# Disc length: 3355 seconds
#
# Revision: 0
# Processed by: cddbd v1.5.1PL0 Copyright (c) Steve Scherf et al.
# Submitted via: audiograbber 1.83.01
#
DISCID=160d1714
DTITLE=Czes³aw Niemen - Sen o Warszawie
DYEAR=2002
DGENRE=Blues
TTITLE0=Felicidade
TTITLE1=El soldado
TTITLE2=Teach Me How Do Twist
TTITLE3=Locomotion
TTITLE4=Tylko nie mów mi o tym
TTITLE5=Wiem ¿e nie wrócisz
TTITLE6=Czy mnie jeszcze pamiêtasz
TTITLE7=Czas jak rzeka
TTITLE8=Jak mo¿na wierzyæ tylko s³owom
TTITLE9=Ach jakie oczy
TTITLE10=Ptaki spiewaja-kocham
TTITLE11=Nie badz taki Bitels
TTITLE12=Zabawa w ciuciubabkê
TTITLE13=Hippy Hippy Shake
TTITLE14=Stojê w oknie
TTITLE15=Jeszcze sen
TTITLE16=Czy wiesz o tym ¿e
TTITLE17=Sen o Warszawie
TTITLE18=Byæ mo¿e i ty
TTITLE19=Hej dziewczyno hej
EXTD=
EXTT0=
EXTT1=
EXTT2=
EXTT3=
EXTT4=
EXTT5=
EXTT6=
EXTT7=
EXTT8=
EXTT9=
EXTT10=
EXTT11=
EXTT12=
EXTT13=
EXTT14=
EXTT15=
EXTT16=
EXTT17=
EXTT18=
EXTT19=
PLAYORDER=
